<svg xmlns="http://www.w3.org/2000/svg" viewBox="0 0 64 64" width="64" height="64">
  <defs>
    <!-- Background gradient - purple to cyan -->
    <linearGradient id="bgGrad" x1="0%" y1="0%" x2="100%" y2="100%">
      <stop offset="0%" style="stop-color:#c084fc"/>
      <stop offset="40%" style="stop-color:#a5b4fc"/>
      <stop offset="100%" style="stop-color:#5eead4"/>
    </linearGradient>
    
    <!-- Stroke gradient for TR letters - purple to cyan -->
    <linearGradient id="strokeGrad" x1="0%" y1="0%" x2="0%" y2="100%">
      <stop offset="0%" style="stop-color:#8b5cf6"/>
      <stop offset="50%" style="stop-color:#6366f1"/>
      <stop offset="100%" style="stop-color:#06b6d4"/>
    </linearGradient>
    
    <filter id="shadowIcon" x="-20%" y="-20%" width="140%" height="140%">
      <feDropShadow dx="1" dy="2" stdDeviation="1" flood-color="#1e1b4b" flood-opacity="0.3"/>
    </filter>
  </defs>
  
  <!-- Background circle -->
  <circle cx="32" cy="32" r="30" fill="url(#bgGrad)"/>
  
  <!-- Elegant TR Monogram - all in same gradient color -->
  <g fill="none" stroke="url(#strokeGrad)" stroke-width="3" stroke-linecap="round" stroke-linejoin="round" filter="url(#shadowIcon)">
    <!-- T horizontal bar with serif ends -->
    <path d="M12,14 C12,12 13,11 15,11 L49,11 C51,11 52,12 52,14"/>
    
    <!-- T left serif -->
    <path d="M12,14 L12,18"/>
    
    <!-- T right serif -->
    <path d="M52,14 L52,18"/>
    
    <!-- T vertical stem - full length visible -->
    <path d="M32,11 L32,56"/>
    
    <!-- T bottom serif -->
    <path d="M26,56 L38,56"/>
    
    <!-- R bowl curve -->
    <path d="M32,16 L38,16 C48,16 50,22 50,27 C50,34 45,38 38,38 L32,38"/>
    
    <!-- R inner curve detail -->
    <path d="M38,21 C43,21 45,24 45,27 C45,31 43,33 38,33"/>
    
    <!-- R diagonal leg with flourish -->
    <path d="M40,38 C42,42 46,48 50,54 C51,56 52,58 54,60"/>
    
    <!-- R leg inner line -->
    <path d="M44,42 C46,46 48,50 52,56"/>
  </g>
</svg>
