<svg xmlns="http://www.w3.org/2000/svg" viewBox="0 0 64 64" width="64" height="64">
  <defs>
    <!-- Background gradient - purple to cyan -->
    <linearGradient id="bgGrad" x1="0%" y1="0%" x2="100%" y2="100%">
      <stop offset="0%" style="stop-color:#c084fc"/>
      <stop offset="40%" style="stop-color:#a5b4fc"/>
      <stop offset="100%" style="stop-color:#5eead4"/>
    </linearGradient>
    
    <!-- Stroke gradient for TR letters - purple to cyan -->
    <linearGradient id="strokeGrad" x1="0%" y1="0%" x2="0%" y2="100%">
      <stop offset="0%" style="stop-color:#4c1d95"/>
      <stop offset="50%" style="stop-color:#4338ca"/>
      <stop offset="100%" style="stop-color:#0891b2"/>
    </linearGradient>
    
    <filter id="shadowIcon" x="-20%" y="-20%" width="140%" height="140%">
      <feDropShadow dx="1" dy="2" stdDeviation="1" flood-color="#1e1b4b" flood-opacity="0.3"/>
    </filter>
  </defs>
  
  <!-- Background circle -->
  <circle cx="32" cy="32" r="30" fill="url(#bgGrad)"/>
  
  <!-- R parts -->
  <g fill="none" stroke="url(#strokeGrad)" stroke-width="3" stroke-linecap="round" stroke-linejoin="round" filter="url(#shadowIcon)">
    <!-- R bowl curve -->
    <path d="M32,16 L38,16 C48,16 50,22 50,27 C50,34 45,38 38,38 L32,38"/>
    
    <!-- R inner curve detail -->
    <path d="M38,21 C43,21 45,24 45,27 C45,31 43,33 38,33"/>
    
    <!-- R diagonal leg with flourish -->
    <path d="M40,38 C42,42 46,48 50,54 C51,56 52,58 54,60"/>
    
    <!-- R leg inner line -->
    <path d="M44,42 C46,46 48,50 52,56"/>
  </g>
  
  <!-- T horizontal bar -->
  <line x1="14" y1="12" x2="50" y2="12" stroke="#4c1d95" stroke-width="3" stroke-linecap="round"/>
  <!-- T vertical stem - on the LEFT side -->
  <line x1="20" y1="12" x2="20" y2="54" stroke="url(#strokeGrad)" stroke-width="3" stroke-linecap="round"/>
</svg>
