<svg xmlns="http://www.w3.org/2000/svg" viewBox="0 0 32 32" width="32" height="32">
  <defs>
    <linearGradient id="bg" x1="0%" y1="0%" x2="100%" y2="100%">
      <stop offset="0%" style="stop-color:#c084fc"/>
      <stop offset="40%" style="stop-color:#a5b4fc"/>
      <stop offset="100%" style="stop-color:#5eead4"/>
    </linearGradient>
    <linearGradient id="stroke" x1="0%" y1="0%" x2="0%" y2="100%">
      <stop offset="0%" style="stop-color:#8b5cf6"/>
      <stop offset="50%" style="stop-color:#6366f1"/>
      <stop offset="100%" style="stop-color:#06b6d4"/>
    </linearGradient>
  </defs>
  
  <circle cx="16" cy="16" r="15" fill="url(#bg)"/>
  
  <g fill="none" stroke="url(#stroke)" stroke-width="1.5" stroke-linecap="round" stroke-linejoin="round">
    <!-- T horizontal bar with serif ends -->
    <path d="M6,7 C6,6 6.5,5.5 7.5,5.5 L24.5,5.5 C25.5,5.5 26,6 26,7"/>
    
    <!-- T left serif -->
    <path d="M6,7 L6,9"/>
    
    <!-- T right serif -->
    <path d="M26,7 L26,9"/>
    
    <!-- T vertical stem -->
    <path d="M16,5.5 L16,28"/>
    
    <!-- T bottom serif -->
    <path d="M13,28 L19,28"/>
    
    <!-- R bowl curve -->
    <path d="M16,8 L19,8 C24,8 25,11 25,13.5 C25,17 22.5,19 19,19 L16,19"/>
    
    <!-- R inner curve detail -->
    <path d="M19,10.5 C21.5,10.5 22.5,12 22.5,13.5 C22.5,15.5 21.5,16.5 19,16.5"/>
    
    <!-- R diagonal leg with flourish -->
    <path d="M20,19 C21,21 23,24 25,27 C25.5,28 26,29 27,30"/>
    
    <!-- R leg inner line -->
    <path d="M22,21 C23,23 24,25 26,28"/>
  </g>
</svg>
