<svg xmlns="http://www.w3.org/2000/svg" viewBox="0 0 64 64" width="64" height="64">
  <defs>
    <linearGradient id="bgGrad" x1="0%" y1="0%" x2="100%" y2="100%">
      <stop offset="0%" stop-color="#c084fc"/>
      <stop offset="40%" stop-color="#a5b4fc"/>
      <stop offset="100%" stop-color="#5eead4"/>
    </linearGradient>
    <linearGradient id="strokeGrad" x1="0%" y1="0%" x2="0%" y2="100%">
      <stop offset="0%" stop-color="#8b5cf6"/>
      <stop offset="50%" stop-color="#6366f1"/>
      <stop offset="100%" stop-color="#06b6d4"/>
    </linearGradient>
  </defs>
  <circle cx="32" cy="32" r="30" fill="url(#bgGrad)"/>
  <g fill="none" stroke="url(#strokeGrad)" stroke-width="3" stroke-linecap="round" stroke-linejoin="round">
    <path d="M12,14 C12,12 13,11 15,11 L49,11 C51,11 52,12 52,14"/>
    <path d="M12,14 L12,18"/>
    <path d="M52,14 L52,18"/>
    <path d="M32,11 L32,56"/>
    <path d="M26,56 L38,56"/>
    <path d="M32,16 L38,16 C48,16 50,22 50,27 C50,34 45,38 38,38 L32,38"/>
    <path d="M38,21 C43,21 45,24 45,27 C45,31 43,33 38,33"/>
    <path d="M40,38 C42,42 46,48 50,54 C51,56 52,58 54,60"/>
    <path d="M44,42 C46,46 48,50 52,56"/>
  </g>
</svg>
